# Blender 4.0.2
# www.blender.org
mtllib gallery2.mtl
o Gallery_Room
v -4.421347 0.000000 -12.359450
v 4.421347 0.000000 -12.359450
v -4.421347 0.000000 10.891499
v 4.421347 0.000000 10.891499
v -4.421347 6.334704 -12.359450
v 4.421347 6.334704 -12.359450
v -4.421347 6.334704 10.891499
v 4.421347 6.334704 10.891499
v -4.421347 0.000000 -3.684333
v -4.421347 0.000000 3.684333
v 4.421347 0.000000 3.684333
v 4.421347 0.000000 -3.684333
v 4.421347 6.334704 3.684333
v 4.421347 6.334704 -3.684333
v 4.421347 3.774507 10.891499
v 4.421347 1.810769 10.891499
v -4.421347 1.810769 10.891499
v -4.421347 3.774507 10.891499
v 4.421347 3.774507 -12.359450
v 4.421347 1.810769 -12.359450
v -4.421347 3.774507 -12.359450
v -4.421347 1.810769 -12.359450
v 4.421347 1.810769 -3.684333
v 4.421347 3.774507 -3.684333
v 4.421347 1.810769 3.684333
v 4.421347 3.774507 3.684333
v 4.421347 0.000000 -6.673889
v 4.421347 6.334704 -6.673889
v -4.421347 0.000000 -6.673888
v 4.421347 1.810769 -6.673889
v 4.421347 3.774507 -6.673889
v -4.421347 0.000000 -1.494778
v 4.421347 0.000000 -1.494778
v 4.421347 6.334704 -1.494778
v 4.421347 1.810769 -1.494778
v 4.421347 3.774507 -1.494778
v -4.421347 0.000000 1.494778
v 4.421347 0.000000 1.494778
v 4.421347 6.334704 1.494778
v 4.421347 1.810769 1.494778
v 4.421347 3.774507 1.494778
v -4.421347 0.000000 6.673889
v 4.421347 0.000000 6.673888
v 4.421347 6.334704 6.673888
v 4.421347 1.810769 6.673888
v 4.421347 3.774507 6.673888
vn -1.0000 -0.0000 -0.0000
vn -0.0000 1.0000 -0.0000
vn -0.0000 -0.0000 -1.0000
vn -0.0000 -0.0000 1.0000
vt 1.000000 0.916667
vt 1.000000 1.000000
vt 0.000000 0.916667
vt 1.000000 0.416667
vt 1.000000 0.583333
vt 0.000000 0.000000
vt 1.000000 0.000000
vt 0.000000 1.000000
vt 0.000000 0.750000
vt 1.000000 0.750000
vt 0.000000 0.416667
vt 1.000000 0.083333
vt 1.000000 0.250000
vt 1.000000 0.083333
vt 0.000000 0.250000
vt 0.000000 0.583333
vt 0.000000 0.083333
s 0
usemtl Wall
f 30/1/1 2/2/1 27/1/1
f 2/2/2 29/3/2 27/1/2
f 39/4/1 36/5/1 41/4/1
f 18/6/3 8/7/3 15/7/3
f 31/1/1 20/2/1 30/1/1
f 19/2/4 5/8/4 21/8/4
f 27/1/2 9/9/2 12/10/2
f 33/5/2 37/11/2 38/4/2
f 43/12/1 25/13/1 11/13/1
f 46/14/1 13/13/1 26/13/1
f 28/1/1 19/2/1 31/1/1
f 36/5/1 14/10/1 24/10/1
f 38/4/2 10/15/2 11/13/2
f 11/13/1 40/4/1 38/4/1
f 35/5/1 24/10/1 23/10/1
f 24/10/1 28/1/1 31/1/1
f 2/2/4 22/8/4 1/8/4
f 20/2/4 21/8/4 22/8/4
f 8/7/1 46/14/1 15/7/1
f 4/7/1 45/14/1 43/12/1
f 16/7/1 46/14/1 45/14/1
f 40/4/1 33/5/1 38/4/1
f 3/6/3 16/7/3 4/7/3
f 17/6/3 15/7/3 16/7/3
f 43/12/2 3/6/2 4/7/2
f 33/5/1 23/10/1 12/10/1
f 33/5/2 9/9/2 32/16/2
f 25/13/1 41/4/1 40/4/1
f 26/13/1 39/4/1 41/4/1
f 43/12/2 10/15/2 42/17/2
f 12/10/1 30/1/1 27/1/1
f 30/1/1 20/2/1 2/2/1
f 2/2/2 1/8/2 29/3/2
f 39/4/1 34/5/1 36/5/1
f 18/6/3 7/6/3 8/7/3
f 31/1/1 19/2/1 20/2/1
f 19/2/4 6/2/4 5/8/4
f 27/1/2 29/3/2 9/9/2
f 33/5/2 32/16/2 37/11/2
f 43/12/1 45/14/1 25/13/1
f 46/14/1 44/14/1 13/13/1
f 28/1/1 6/2/1 19/2/1
f 36/5/1 34/5/1 14/10/1
f 38/4/2 37/11/2 10/15/2
f 11/13/1 25/13/1 40/4/1
f 35/5/1 36/5/1 24/10/1
f 24/10/1 14/10/1 28/1/1
f 2/2/4 20/2/4 22/8/4
f 20/2/4 19/2/4 21/8/4
f 8/7/1 44/14/1 46/14/1
f 4/7/1 16/7/1 45/14/1
f 16/7/1 15/7/1 46/14/1
f 40/4/1 35/5/1 33/5/1
f 3/6/3 17/6/3 16/7/3
f 17/6/3 18/6/3 15/7/3
f 43/12/2 42/17/2 3/6/2
f 33/5/1 35/5/1 23/10/1
f 33/5/2 12/10/2 9/9/2
f 25/13/1 26/13/1 41/4/1
f 26/13/1 13/13/1 39/4/1
f 43/12/2 11/13/2 10/15/2
f 12/10/1 23/10/1 30/1/1
o Human
v -0.500000 0.000000 0.500000
v -0.500000 2.000000 0.500000
v -0.500000 0.000000 -0.500000
v -0.500000 2.000000 -0.500000
v 0.500000 0.000000 0.500000
v 0.500000 2.000000 0.500000
v 0.500000 0.000000 -0.500000
v 0.500000 2.000000 -0.500000
vn -1.0000 -0.0000 -0.0000
vn -0.0000 -0.0000 -1.0000
vn 1.0000 -0.0000 -0.0000
vn -0.0000 -0.0000 1.0000
vn -0.0000 -1.0000 -0.0000
vn -0.0000 1.0000 -0.0000
vt 0.625000 0.000000
vt 0.375000 0.250000
vt 0.375000 0.000000
vt 0.625000 0.250000
vt 0.375000 0.500000
vt 0.625000 0.500000
vt 0.375000 0.750000
vt 0.625000 0.750000
vt 0.375000 1.000000
vt 0.125000 0.750000
vt 0.125000 0.500000
vt 0.875000 0.500000
vt 0.625000 1.000000
vt 0.875000 0.750000
s 0
usemtl Human
f 48/18/5 49/19/5 47/20/5
f 50/21/6 53/22/6 49/19/6
f 54/23/7 51/24/7 53/22/7
f 52/25/8 47/26/8 51/24/8
f 53/22/9 47/27/9 49/28/9
f 50/29/10 52/25/10 54/23/10
f 48/18/5 50/21/5 49/19/5
f 50/21/6 54/23/6 53/22/6
f 54/23/7 52/25/7 51/24/7
f 52/25/8 48/30/8 47/26/8
f 53/22/9 51/24/9 47/27/9
f 50/29/10 48/31/10 52/25/10
o Gallery_Roof
v -4.421350 6.336184 -12.359450
v 4.421347 6.334704 -12.359450
v -4.421347 6.334704 10.891499
v 4.421347 6.334704 10.891499
v 0.000000 6.334704 -12.359450
v 0.000000 6.334704 10.891499
v 4.270757 7.478796 -12.359450
v 3.829245 8.544951 -12.359450
v 3.126887 9.460547 -12.359450
v 2.211527 10.163211 -12.359450
v 1.145518 10.605080 -12.359450
v 0.001478 10.756053 -12.359450
v -1.142664 10.605846 -12.359450
v -2.208968 10.164692 -12.359450
v -3.124799 9.462641 -12.359450
v -3.827770 8.547516 -12.359450
v -4.269996 7.481655 -12.359450
v 4.270720 7.478930 10.891499
v 3.829104 8.545195 10.891499
v 3.126589 9.460844 10.891499
v 2.211040 10.163491 10.891499
v 1.144840 10.605261 10.891499
v 0.000635 10.756051 10.891499
v -1.143613 10.605590 10.891499
v -2.209940 10.164128 10.891499
v -3.125691 9.461744 10.891499
v -3.828470 8.546296 10.891499
v -4.270393 7.480159 10.891499
v -4.421349 6.335975 10.891499
vn 0.9914 -0.1308 -0.0000
vn 0.9238 -0.3829 -0.0000
vn 0.7932 -0.6089 -0.0000
vn 0.6086 -0.7935 -0.0000
vn 0.3825 -0.9239 -0.0000
vn 0.1304 -0.9915 -0.0000
vn -0.1307 -0.9914 -0.0000
vn -0.3828 -0.9238 -0.0000
vn -0.6088 -0.7933 -0.0000
vn -0.7934 -0.6087 -0.0000
vn -0.9239 -0.3827 -0.0000
vn -0.9914 -0.1305 -0.0000
vn -0.0000 -0.0000 -1.0000
vn -0.0000 -0.0000 1.0000
vn 0.9914 -0.1310 -0.0000
vn 0.9237 -0.3832 -0.0000
vn 0.7930 -0.6092 -0.0000
vn 0.6084 -0.7936 -0.0000
vn 0.3823 -0.9240 -0.0000
vn 0.1302 -0.9915 -0.0000
vn -0.1308 -0.9914 -0.0000
vn -0.3829 -0.9238 -0.0000
vn -0.6089 -0.7932 -0.0000
vn -0.9239 -0.3826 -0.0000
vt 0.000000 0.000000
s 0
usemtl Wall
f 55/32/11 82/32/11 83/32/11
f 71/32/12 81/32/12 82/32/12
f 70/32/13 80/32/13 81/32/13
f 69/32/14 79/32/14 80/32/14
f 68/32/15 78/32/15 79/32/15
f 67/32/16 77/32/16 78/32/16
f 66/32/17 76/32/17 77/32/17
f 65/32/18 75/32/18 76/32/18
f 64/32/19 74/32/19 75/32/19
f 63/32/20 73/32/20 74/32/20
f 62/32/21 72/32/21 73/32/21
f 58/32/22 61/32/22 56/32/22
f 72/32/23 83/32/23 82/32/23
f 81/32/23 72/32/23 82/32/23
f 81/32/23 74/32/23 73/32/23
f 80/32/23 75/32/23 74/32/23
f 75/32/23 78/32/23 76/32/23
f 77/32/23 76/32/23 78/32/23
f 61/32/24 55/32/24 56/32/24
f 61/32/24 70/32/24 71/32/24
f 63/32/24 70/32/24 62/32/24
f 64/32/24 69/32/24 63/32/24
f 65/32/24 68/32/24 64/32/24
f 66/32/24 67/32/24 65/32/24
f 55/32/25 71/32/25 82/32/25
f 71/32/26 70/32/26 81/32/26
f 70/32/27 69/32/27 80/32/27
f 69/32/28 68/32/28 79/32/28
f 68/32/29 67/32/29 78/32/29
f 67/32/30 66/32/30 77/32/30
f 66/32/31 65/32/31 76/32/31
f 65/32/32 64/32/32 75/32/32
f 64/32/33 63/32/33 74/32/33
f 63/32/20 62/32/20 73/32/20
f 62/32/34 61/32/34 72/32/34
f 58/32/22 72/32/22 61/32/22
f 72/32/23 58/32/23 83/32/23
f 81/32/23 73/32/23 72/32/23
f 81/32/23 80/32/23 74/32/23
f 80/32/23 79/32/23 75/32/23
f 75/32/23 79/32/23 78/32/23
f 61/32/24 71/32/24 55/32/24
f 61/32/24 62/32/24 70/32/24
f 63/32/24 69/32/24 70/32/24
f 64/32/24 68/32/24 69/32/24
f 65/32/24 67/32/24 68/32/24
l 59 55
l 60 58
l 55 57
l 56 59
l 57 60
o Frame1
v 4.421347 1.810769 -3.684333
v 4.421347 3.774507 -3.684333
v 4.421347 1.810769 -6.673889
v 4.421347 3.774507 -6.673889
v 4.421347 2.005749 -3.879313
v 4.421347 3.579527 -3.879313
v 4.421347 2.005749 -6.478909
v 4.421347 3.579527 -6.478909
v 4.276501 2.005749 -3.879313
v 4.276501 3.579527 -3.879313
v 4.276501 2.005749 -6.478909
v 4.276501 3.579527 -6.478909
v 4.276501 1.810769 -3.684333
v 4.276501 3.774507 -3.684333
v 4.276501 1.810769 -6.673889
v 4.276501 3.774507 -6.673889
vn -1.0000 -0.0000 -0.0000
vn 1.0000 -0.0000 -0.0000
vn -0.0000 1.0000 -0.0000
vn -0.0000 -0.0000 1.0000
vn -0.0000 -1.0000 -0.0000
vn -0.0000 -0.0000 -1.0000
vt 0.000000 0.000000
s 0
usemtl Frame
f 96/33/35 93/33/35 92/33/35
f 89/33/36 84/33/36 88/33/36
f 88/33/36 86/33/36 90/33/36
f 91/33/36 85/33/36 89/33/36
f 90/33/36 87/33/36 91/33/36
f 98/33/35 92/33/35 94/33/35
f 97/33/35 95/33/35 93/33/35
f 99/33/35 94/33/35 95/33/35
f 87/33/37 97/33/37 85/33/37
f 85/33/38 96/33/38 84/33/38
f 89/33/39 95/33/39 91/33/39
f 88/33/40 93/33/40 89/33/40
f 86/33/40 99/33/40 87/33/40
f 84/33/39 98/33/39 86/33/39
f 91/33/38 94/33/38 90/33/38
f 90/33/37 92/33/37 88/33/37
f 96/33/35 97/33/35 93/33/35
f 89/33/36 85/33/36 84/33/36
f 88/33/36 84/33/36 86/33/36
f 91/33/36 87/33/36 85/33/36
f 90/33/36 86/33/36 87/33/36
f 98/33/35 96/33/35 92/33/35
f 97/33/35 99/33/35 95/33/35
f 99/33/35 98/33/35 94/33/35
f 87/33/37 99/33/37 97/33/37
f 85/33/38 97/33/38 96/33/38
f 89/33/39 93/33/39 95/33/39
f 88/33/40 92/33/40 93/33/40
f 86/33/40 98/33/40 99/33/40
f 84/33/39 96/33/39 98/33/39
f 91/33/38 95/33/38 94/33/38
f 90/33/37 94/33/37 92/33/37
o Frame2
v 4.421347 1.810769 1.494778
v 4.421347 3.774507 1.494778
v 4.421347 1.810769 -1.494778
v 4.421347 3.774507 -1.494778
v 4.421347 2.005749 1.299797
v 4.421347 3.579527 1.299797
v 4.421347 2.005749 -1.299798
v 4.421347 3.579527 -1.299798
v 4.276501 2.005749 1.299797
v 4.276501 3.579527 1.299797
v 4.276501 2.005749 -1.299798
v 4.276501 3.579527 -1.299798
v 4.276501 1.810769 1.494778
v 4.276501 3.774507 1.494778
v 4.276501 1.810769 -1.494778
v 4.276501 3.774507 -1.494778
vn -1.0000 -0.0000 -0.0000
vn 1.0000 -0.0000 -0.0000
vn -0.0000 1.0000 -0.0000
vn -0.0000 -0.0000 1.0000
vn -0.0000 -1.0000 -0.0000
vn -0.0000 -0.0000 -1.0000
vt 0.000000 0.000000
s 0
usemtl Frame
f 112/34/41 109/34/41 108/34/41
f 105/34/42 100/34/42 104/34/42
f 104/34/42 102/34/42 106/34/42
f 107/34/42 101/34/42 105/34/42
f 106/34/42 103/34/42 107/34/42
f 114/34/41 108/34/41 110/34/41
f 113/34/41 111/34/41 109/34/41
f 115/34/41 110/34/41 111/34/41
f 103/34/43 113/34/43 101/34/43
f 101/34/44 112/34/44 100/34/44
f 105/34/45 111/34/45 107/34/45
f 104/34/46 109/34/46 105/34/46
f 102/34/46 115/34/46 103/34/46
f 100/34/45 114/34/45 102/34/45
f 107/34/44 110/34/44 106/34/44
f 106/34/43 108/34/43 104/34/43
f 112/34/41 113/34/41 109/34/41
f 105/34/42 101/34/42 100/34/42
f 104/34/42 100/34/42 102/34/42
f 107/34/42 103/34/42 101/34/42
f 106/34/42 102/34/42 103/34/42
f 114/34/41 112/34/41 108/34/41
f 113/34/41 115/34/41 111/34/41
f 115/34/41 114/34/41 110/34/41
f 103/34/43 115/34/43 113/34/43
f 101/34/44 113/34/44 112/34/44
f 105/34/45 109/34/45 111/34/45
f 104/34/46 108/34/46 109/34/46
f 102/34/46 114/34/46 115/34/46
f 100/34/45 112/34/45 114/34/45
f 107/34/44 111/34/44 110/34/44
f 106/34/43 110/34/43 108/34/43
o Frame3
v 4.421347 1.810769 6.673888
v 4.421347 3.774507 6.673888
v 4.421347 1.810769 3.684332
v 4.421347 3.774507 3.684332
v 4.421347 2.005749 6.478908
v 4.421347 3.579527 6.478908
v 4.421347 2.005749 3.879313
v 4.421347 3.579527 3.879313
v 4.276501 2.005749 6.478908
v 4.276501 3.579527 6.478908
v 4.276501 2.005749 3.879313
v 4.276501 3.579527 3.879313
v 4.276501 1.810769 6.673888
v 4.276501 3.774507 6.673888
v 4.276501 1.810769 3.684332
v 4.276501 3.774507 3.684332
vn -1.0000 -0.0000 -0.0000
vn 1.0000 -0.0000 -0.0000
vn -0.0000 1.0000 -0.0000
vn -0.0000 -0.0000 1.0000
vn -0.0000 -1.0000 -0.0000
vn -0.0000 -0.0000 -1.0000
vt 0.000000 0.000000
s 0
usemtl Frame
f 128/35/47 125/35/47 124/35/47
f 121/35/48 116/35/48 120/35/48
f 120/35/48 118/35/48 122/35/48
f 123/35/48 117/35/48 121/35/48
f 122/35/48 119/35/48 123/35/48
f 130/35/47 124/35/47 126/35/47
f 129/35/47 127/35/47 125/35/47
f 131/35/47 126/35/47 127/35/47
f 119/35/49 129/35/49 117/35/49
f 117/35/50 128/35/50 116/35/50
f 121/35/51 127/35/51 123/35/51
f 120/35/52 125/35/52 121/35/52
f 118/35/52 131/35/52 119/35/52
f 116/35/51 130/35/51 118/35/51
f 123/35/50 126/35/50 122/35/50
f 122/35/49 124/35/49 120/35/49
f 128/35/47 129/35/47 125/35/47
f 121/35/48 117/35/48 116/35/48
f 120/35/48 116/35/48 118/35/48
f 123/35/48 119/35/48 117/35/48
f 122/35/48 118/35/48 119/35/48
f 130/35/47 128/35/47 124/35/47
f 129/35/47 131/35/47 127/35/47
f 131/35/47 130/35/47 126/35/47
f 119/35/49 131/35/49 129/35/49
f 117/35/50 129/35/50 128/35/50
f 121/35/51 125/35/51 127/35/51
f 120/35/52 124/35/52 125/35/52
f 118/35/52 130/35/52 131/35/52
f 116/35/51 128/35/51 130/35/51
f 123/35/50 127/35/50 126/35/50
f 122/35/49 126/35/49 124/35/49
